<svg xmlns="http://www.w3.org/2000/svg" xmlns:xlink="http://www.w3.org/1999/xlink" width="41.323" height="49.272" viewBox="0 0 41.323 49.272">
  <defs>
    <clipPath id="clip-path">
      <rect id="Rectangle_18541" data-name="Rectangle 18541" width="32.915" height="32.985" fill="#454545" stroke="#22624a" stroke-width="0.5"/>
    </clipPath>
  </defs>
  <g id="Groupe_20401" data-name="Groupe 20401" transform="translate(-3.876 4.722) rotate(-11)">
    <circle id="Ellipse_49" data-name="Ellipse 49" cx="12.536" cy="12.536" r="12.536" transform="translate(0 20.311)" fill="#ebfbf4"/>
    <g id="Groupe_17912" data-name="Groupe 17912" transform="matrix(0.995, 0.105, -0.105, 0.995, 9.713, 0)">
      <g id="Groupe_17911" data-name="Groupe 17911" transform="translate(0 0)" clip-path="url(#clip-path)">
        <path id="Tracé_433" data-name="Tracé 433" d="M23.957,15.994h.417c1.8,0,3.6,0,5.4,0a3.079,3.079,0,0,1,3.094,2.552,2.634,2.634,0,0,1,.041.534c-.062,3.648-.112,7.3-.2,10.943a2.646,2.646,0,0,1-2.853,2.687c-1.23-.036-2.458-.136-3.687-.168-.511-.013-1.024.083-1.536.116-1.674.111-3.348.242-5.024.31a6.048,6.048,0,0,1-1.682-.2,2.565,2.565,0,0,1-1.431-1.1c-.027,0-.059-.006-.068,0a2.8,2.8,0,0,1-2.492,1.043q-1.742-.1-3.486-.174c-.31-.012-.622.053-.934.072-2.021.126-4.04.267-6.062.367a3.6,3.6,0,0,1-3.02-1.47,2.114,2.114,0,0,1-.432-1.385C0,26.411-.006,22.7.01,18.98A3.011,3.011,0,0,1,3.019,16c1.734-.01,3.469,0,5.2,0h.305c-.19-.523-.38-1.028-.555-1.538a1.142,1.142,0,0,1-.039-.365c0-3.682-.01-7.363,0-11.045A3.019,3.019,0,0,1,11.02,0q5.4,0,10.809,0a3.044,3.044,0,0,1,3.152,3.161c-.047,3.637-.121,7.273-.2,10.909a2.865,2.865,0,0,1-.827,1.922M14.183,1.32c-.994,0-1.954,0-2.914,0A1.8,1.8,0,0,0,9.327,3.265c0,3.613.027,7.227-.016,10.839a2.037,2.037,0,0,0,2.038,2.025,33.321,33.321,0,0,1,5.116.238,3.21,3.21,0,0,0,1.9-.147,1.688,1.688,0,0,1,.725-.091c1.107-.009,2.216-.036,3.322.01a1.414,1.414,0,0,0,1.25-.624,2.048,2.048,0,0,0,.46-1.369c-.029-.928-.06-1.856-.075-2.784-.045-2.718-.079-5.436-.124-8.154A1.865,1.865,0,0,0,22.234,1.4q-1.069-.092-2.142-.138c-.452-.02-.9,0-1.362,0,.036.979.064,1.895.106,2.81a.769.769,0,0,1-.4.819c-.338.17-.6-.01-.85-.214l-1.117-.911c-.5.337-.982.643-1.445.974a.707.707,0,0,1-.8.145c-.319-.164-.282-.449-.261-.73.07-.924.141-1.847.215-2.825m7.938,15.953c-.089-.006-.165-.016-.241-.016-.951,0-1.9-.008-2.852,0A1.775,1.775,0,0,0,17.262,19c-.05,3.636-.068,7.272-.15,10.907a2.045,2.045,0,0,0,1.975,2.023c.9,0,1.809.086,2.712.147,1.383.094,2.764.253,4.149.285,1.317.031,2.638-.049,3.956-.112a2.105,2.105,0,0,0,2.018-2.2q-.086-4.228-.17-8.456c-.016-.828-.007-1.656-.023-2.483a1.77,1.77,0,0,0-1.718-1.788c-.458-.028-.914-.085-1.372-.1-.655-.017-1.31,0-1.979,0,0,.073,0,.128,0,.182q.057,1.324.116,2.648a.74.74,0,0,1-.418.773.7.7,0,0,1-.794-.191c-.305-.245-.615-.485-.908-.743a.352.352,0,0,0-.522-.023c-.422.312-.871.588-1.3.888a.6.6,0,0,1-.661.058.505.505,0,0,1-.282-.555c.021-.223.026-.447.044-.67.061-.766.125-1.531.189-2.316M6.315,17.094a.35.35,0,0,0-.084-.029c-.94,0-1.882.036-2.818-.017a1.883,1.883,0,0,0-1.965,1.945c.022,3.625.029,7.25,0,10.875a2.056,2.056,0,0,0,1.965,2c1.262.019,2.524.13,3.785.212,1.116.073,2.23.21,3.346.225,1.251.016,2.5-.073,3.756-.116a2.043,2.043,0,0,0,1.748-1.177.644.644,0,0,0,.025-.344c-.015-.188-.068-.374-.071-.562q-.106-5.705-.2-11.411a1.742,1.742,0,0,0-1.53-1.687c-1.117-.038-2.237-.008-3.355,0-.017,0-.033.026-.042.035.033.934.061,1.861.1,2.788a.746.746,0,0,1-.418.8c-.332.156-.58-.028-.819-.22-.314-.251-.629-.5-.935-.764a.286.286,0,0,0-.412-.007c-.419.3-.859.566-1.276.867a.652.652,0,0,1-.744.106c-.294-.154-.289-.415-.266-.7.078-.936.146-1.872.218-2.822m.831.319.121,1.77a.388.388,0,0,0,.077-.017q.42-.305.838-.612a.744.744,0,0,1,1.1.045c.17.149.343.294.576.494V17.413Zm18.524,0H22.95l.117,1.813c.353-.257.65-.472.946-.69a.725.725,0,0,1,1.05.046c.18.157.361.312.606.524ZM15.2,3.306l.488-.373c.151-.115.3-.233.454-.342a.691.691,0,0,1,1.063.063c.177.156.359.307.6.512V1.48H15.083c.038.6.075,1.174.116,1.826m.921,13.5.416.4.551-.479-.967.082" transform="translate(0 0)" fill="#454545"/>
        <path id="Tracé_433_-_Contour" data-name="Tracé 433 - Contour" d="M3.534,33.491A3.876,3.876,0,0,1,.5,31.926a2.328,2.328,0,0,1-.49-1.546C0,26.831-.006,23.048.01,19.232A3.275,3.275,0,0,1,3.271,16c.61,0,1.266-.005,2.063-.005l3.085,0-.028-.076c-.142-.386-.275-.751-.4-1.127a1.365,1.365,0,0,1-.053-.447q0-1.3,0-2.605c0-2.767,0-5.627,0-8.441a3.28,3.28,0,0,1,.97-2.35A3.349,3.349,0,0,1,11.272,0q5.4,0,10.81,0A3.425,3.425,0,0,1,24.548.99a3.357,3.357,0,0,1,.939,2.43c-.047,3.612-.12,7.222-.2,10.911a2.956,2.956,0,0,1-.553,1.663l3.156,0c.827,0,1.507,0,2.14,0a3.327,3.327,0,0,1,3.341,2.757,2.886,2.886,0,0,1,.046.586q-.022,1.325-.044,2.65c-.044,2.719-.09,5.53-.155,8.295a2.9,2.9,0,0,1-3.113,2.934c-.6-.018-1.21-.051-1.8-.083-.619-.034-1.259-.069-1.888-.085a6.986,6.986,0,0,0-.945.062c-.185.02-.377.041-.568.054l-1.195.081c-1.256.087-2.555.177-3.836.229a6.282,6.282,0,0,1-1.753-.208,2.629,2.629,0,0,1-1.414-.986,3.009,3.009,0,0,1-2.276.946c-.083,0-.168,0-.254-.008-1.266-.075-2.4-.132-3.481-.173a3.559,3.559,0,0,0-.547.037c-.117.014-.239.028-.362.036l-1.615.1c-1.458.094-2.965.191-4.45.264C3.662,33.49,3.6,33.491,3.534,33.491ZM5.334,16.5c-.8,0-1.45,0-2.06.005A2.768,2.768,0,0,0,.516,19.234c-.016,3.814-.01,7.6,0,11.144A1.848,1.848,0,0,0,.888,31.6a3.352,3.352,0,0,0,2.646,1.383c.055,0,.112,0,.168,0,1.481-.073,2.987-.17,4.443-.264l.517-.033-.076-.006c-.379-.032-.771-.066-1.155-.091-.307-.02-.613-.042-.92-.063-.936-.066-1.9-.135-2.852-.149a2.306,2.306,0,0,1-2.215-2.257c.028-3.163.029-6.618,0-10.871a2.195,2.195,0,0,1,.626-1.577,2.113,2.113,0,0,1,1.607-.622c.334.019.7.028,1.147.028.258,0,.522,0,.776-.006s.521-.006.782-.006h.1a.348.348,0,0,1,.143.034l.026.01.181.065-.015.192q-.03.4-.06.789c-.05.668-.1,1.358-.159,2.034-.025.3,0,.382.132.451a.356.356,0,0,0,.166.046.563.563,0,0,0,.312-.133c.221-.159.45-.31.671-.457.2-.133.409-.27.606-.411a.617.617,0,0,1,.356-.13.557.557,0,0,1,.367.151c.31.264.639.527.929.759a.775.775,0,0,0,.415.224.323.323,0,0,0,.138-.035c.175-.083.289-.21.273-.562-.03-.665-.053-1.342-.075-2q-.014-.4-.028-.793l0-.122.082-.07A.289.289,0,0,1,11.158,17c.319,0,.637,0,.956-.007.37,0,.753-.007,1.13-.007.489,0,.9.006,1.28.019A1.984,1.984,0,0,1,16.3,18.945q.053,2.836.1,5.671.051,2.87.1,5.74a1.959,1.959,0,0,0,.034.279c.014.086.029.175.037.268l0,.033a.771.771,0,0,1-.061.457,2.277,2.277,0,0,1-1.958,1.3l-.408.015.062,0a2.542,2.542,0,0,0,2.28-.95.273.273,0,0,1,.218-.1h.041l.138-.006.074.113a2.278,2.278,0,0,0,1.286,1,5.785,5.785,0,0,0,1.61.193c1.274-.052,2.569-.142,3.821-.228l.166-.011-.413-.034c-.458-.038-.932-.078-1.4-.11l-.622-.045c-.664-.05-1.35-.1-2.02-.1h-.059a2.277,2.277,0,0,1-1.58-.7,2.181,2.181,0,0,1-.642-1.579c.055-2.418.081-4.878.107-7.258.013-1.2.026-2.431.043-3.647a2.018,2.018,0,0,1,2.017-1.994c.345,0,.714-.005,1.16-.005.565,0,1.13,0,1.695,0,.062,0,.121.005.178.01l.08.006.256.018-.074.9c-.046.561-.092,1.116-.136,1.67-.008.1-.013.2-.019.294-.007.123-.014.251-.026.378-.017.186.042.255.144.306a.388.388,0,0,0,.174.046.4.4,0,0,0,.23-.085c.176-.123.356-.242.531-.358.255-.169.518-.344.765-.526a.679.679,0,0,1,.4-.154.662.662,0,0,1,.434.191c.227.2.47.393.7.58l.195.155a.693.693,0,0,0,.383.2.32.32,0,0,0,.141-.037.49.49,0,0,0,.276-.534q-.049-1.072-.095-2.144l-.022-.5c0-.043,0-.084,0-.127,0-.02,0-.042,0-.066v-.253h.253l.6,0,.591,0c.308,0,.561,0,.8.009.284.007.568.032.843.056.177.015.36.031.538.042a2.02,2.02,0,0,1,1.956,2.036c.008.422.01.851.012,1.266s0,.813.011,1.218c.038,2,.08,4.033.12,6q.025,1.228.05,2.456a2.36,2.36,0,0,1-1.711,2.374,2.351,2.351,0,0,0,2-2.4c.066-2.763.111-5.573.155-8.291q.021-1.325.044-2.65a2.382,2.382,0,0,0-.037-.482A2.833,2.833,0,0,0,30.031,16.5c-.632,0-1.312,0-2.138,0l-3.22,0H23.636l.388-.424a2.619,2.619,0,0,0,.76-1.756c.077-3.688.15-7.3.2-10.907a2.856,2.856,0,0,0-.793-2.068A2.923,2.923,0,0,0,22.082.508q-5.4,0-10.809,0A2.758,2.758,0,0,0,8.442,3.3c-.009,2.813-.007,5.673,0,8.439q0,1.3,0,2.605a.965.965,0,0,0,.026.283c.128.371.261.733.4,1.117l.152.417.123.339H8.449ZM19.393,31.933c.689,0,1.385.052,2.058.1l.619.045c.469.032.945.072,1.4.11.9.075,1.823.153,2.733.174.192,0,.393.007.6.007.941,0,1.9-.047,2.83-.093l.51-.025a1.858,1.858,0,0,0,1.777-1.946q-.025-1.228-.05-2.456c-.04-1.966-.082-4-.12-6-.008-.409-.01-.824-.011-1.225s0-.839-.012-1.258a1.512,1.512,0,0,0-1.481-1.541c-.185-.011-.371-.027-.551-.043-.267-.023-.544-.047-.812-.054-.231-.006-.479-.009-.783-.009l-.588,0-.346,0,.018.424q.046,1.072.095,2.143a.987.987,0,0,1-.559,1.012.824.824,0,0,1-.363.088,1.131,1.131,0,0,1-.7-.309l-.193-.154c-.24-.191-.488-.389-.724-.6-.072-.064-.1-.064-.1-.064s-.032,0-.1.055c-.257.19-.526.369-.786.541-.172.114-.35.232-.521.351a.856.856,0,0,1-.919.077.751.751,0,0,1-.421-.8c.011-.118.017-.235.024-.36.006-.1.011-.2.019-.307.044-.555.09-1.109.136-1.671l.032-.388c-.554,0-1.108,0-1.662,0-.444,0-.812,0-1.155.005a1.515,1.515,0,0,0-1.516,1.5c-.017,1.215-.03,2.45-.043,3.645-.026,2.381-.053,4.842-.107,7.264a1.68,1.68,0,0,0,.5,1.214,1.762,1.762,0,0,0,1.218.55ZM3.564,17.55a1.609,1.609,0,0,0-1.132.476,1.693,1.693,0,0,0-.479,1.217c.026,4.256.025,7.713,0,10.879a1.813,1.813,0,0,0,1.716,1.746c.963.014,1.938.083,2.881.15.306.022.611.043.917.063.389.025.784.059,1.165.092.712.061,1.448.124,2.168.133l.307,0c.758,0,1.533-.035,2.282-.069.379-.017.77-.035,1.156-.048a1.785,1.785,0,0,0,1.535-1.047.748.748,0,0,0,0-.166l0-.036c-.006-.071-.018-.145-.031-.223A2.367,2.367,0,0,1,16,30.365q-.053-2.87-.1-5.74-.05-2.835-.1-5.671a1.5,1.5,0,0,0-1.286-1.439c-.378-.013-.779-.019-1.262-.019-.374,0-.756,0-1.125.007l-.741.006q.01.284.02.568c.022.654.045,1.329.075,1.992a1,1,0,0,1-.563,1.043.828.828,0,0,1-.354.083,1.194,1.194,0,0,1-.731-.334c-.293-.234-.625-.5-.941-.769a.223.223,0,0,0-.041-.029.314.314,0,0,0-.06.035c-.2.146-.416.285-.62.421s-.442.292-.654.445a1.054,1.054,0,0,1-.608.229.86.86,0,0,1-.4-.1.849.849,0,0,1-.4-.941c.056-.675.108-1.364.158-2.03L6.3,17.57c-.23,0-.463,0-.688.006-.256,0-.521.006-.782.006-.458,0-.832-.009-1.176-.029Zm19.533,2.4-.164-2.542h3.243v2.5l-.64-.553-.385-.333a.572.572,0,0,0-.376-.187.642.642,0,0,0-.359.154l-.612.446Zm.375-2.036L23.543,19l.573-.418a1.113,1.113,0,0,1,.658-.252,1.079,1.079,0,0,1,.708.311l.187.162v-.888Zm-13.1,1.98-.418-.358-.215-.183c-.134-.114-.25-.213-.364-.313-.21-.184-.327-.205-.4-.205a.705.705,0,0,0-.39.174q-.359.264-.72.526l-.119.087a.3.3,0,0,1-.131.052l-.042.008-.286.062-.16-2.332h3.24Zm-2.7-1.978L7.743,19l.542-.4a1.162,1.162,0,0,1,.69-.272,1.106,1.106,0,0,1,.73.331l.157.136v-.879Zm9.112-.124-.989-.944.383-.032a35.211,35.211,0,0,0-3.54-.206c-.348,0-.691.008-1.021.023a2.249,2.249,0,0,1-1.649-.687,2.219,2.219,0,0,1-.654-1.594c.03-2.521.025-5.085.02-7.565,0-1.072,0-2.181,0-3.272a2.041,2.041,0,0,1,2.2-2.2h3.187l-.078,1.021c-.054.707-.106,1.391-.158,2.076l0,.037c-.023.294-.013.377.127.449a.358.358,0,0,0,.164.045.729.729,0,0,0,.373-.17c.328-.234.658-.452,1.008-.683l.443-.294.156-.1.486.4L18,4.725a.759.759,0,0,0,.423.225.338.338,0,0,0,.153-.041c.166-.084.273-.214.256-.581-.03-.654-.053-1.3-.077-1.983-.01-.272-.019-.548-.03-.829l-.01-.262h.262c.141,0,.281,0,.422,0s.282,0,.423,0c.2,0,.371,0,.529.01.744.033,1.468.08,2.153.139a2.122,2.122,0,0,1,1.921,2.06c.022,1.353.042,2.729.062,4.059s.04,2.73.062,4.095c.014.853.042,1.721.068,2.56l.007.22a2.3,2.3,0,0,1-.514,1.533,1.686,1.686,0,0,1-1.46.72c-.42-.017-.866-.025-1.4-.025-.407,0-.821,0-1.222.009l-.683.007h-.131a1.164,1.164,0,0,0-.481.063,2.3,2.3,0,0,1-.974.244Zm-4.147-1.688a38.89,38.89,0,0,1,4.11.263l.139.015a6.605,6.605,0,0,0,.732.055,1.89,1.89,0,0,0,.889-.191,1.538,1.538,0,0,1,.711-.118h.127l.681-.007c.4,0,.818-.009,1.227-.009.546,0,1,.008,1.425.026a1.162,1.162,0,0,0,1.041-.528,1.786,1.786,0,0,0,.406-1.2l-.007-.22c-.027-.841-.054-1.711-.069-2.568-.022-1.365-.043-2.753-.062-4.1s-.039-2.706-.062-4.058A1.611,1.611,0,0,0,22.466,1.9c-.678-.058-1.4-.1-2.132-.138-.15-.007-.311-.01-.506-.01-.139,0-.278,0-.418,0l-.165,0q.01.288.02.569c.024.682.047,1.327.076,1.978a1.037,1.037,0,0,1-.534,1.056.842.842,0,0,1-.381.095,1.2,1.2,0,0,1-.743-.339l-.775-.633-.2-.16-.29.192c-.346.228-.672.444-.993.673a1.152,1.152,0,0,1-.667.264.862.862,0,0,1-.4-.1.838.838,0,0,1-.4-.938l0-.036c.052-.685.1-1.37.158-2.076l.036-.476h-2.64a1.541,1.541,0,0,0-1.69,1.692c0,1.09,0,2.2,0,3.27.005,2.482.01,5.048-.02,7.572a1.784,1.784,0,0,0,1.773,1.77C11.927,16.114,12.278,16.106,12.634,16.106Zm2.6-12.059L15.066,1.48H18.31V3.967l-.417-.356-.221-.188c-.14-.119-.261-.221-.382-.327-.175-.154-.288-.219-.378-.219a.752.752,0,0,0-.373.174c-.106.074-.208.153-.316.236l-.13.1-.312.238Zm.376-2.061.069,1.084.113-.086.127-.1c.108-.083.22-.169.336-.25a1.2,1.2,0,0,1,.662-.265,1.108,1.108,0,0,1,.712.345l.18.156V1.986Z" transform="translate(-0.253 -0.253)" fill="#454545"/>
      </g>
    </g>
  </g>
</svg>
