<svg id="Layer_1" enable-background="new 0 0 68 68" height="512" viewBox="0 0 68 68" width="512" xmlns="http://www.w3.org/2000/svg"><g id="_x38_2"><path d="m13.2412148 8.4133959c.0221558.0628052.1027832.0553589.1113892-.0106201.1986217-1.5210032 1.5256376-2.8153276 2.7371216-3.0635381-.8966675-.2069702-1.708252-.7635498-2.2233276-1.5263672-.2144165-.3175659-.5107422-1.3877563-.6533813-1.8128052-.2229004.4154053-.4662476 1.6206055-.6630249 1.9580688-.4420166.7581787-1.1571655 1.3864136-1.9992065 1.6242065-.0806885.0228271-.0870361.1264648-.0092773.1577148 1.2867429.5178224 2.2437131 1.378235 2.6997068 2.6733405z"/><path d="m19.4770546 45.9330482 8.5195313-2.3574219c6.1558495 6.7667084 5.8306999 6.8476563 6.4404297 6.8476563.3684807 0 .6891632-.2698708.7421875-.6435547l1.4433594-10.0712891 7.9257813-5.0810547c.4884453-.3144493.4509735-1.0463257-.0742188-1.3046875l-7.6748047-3.7705078-1.0722656-9.7919922c-.0708504-.6612682-.9105225-.9055309-1.3271484-.390625l-6.2041016 7.6494141-8.4941406-.9902344c-.2753906-.0273438-.5341797.0849609-.6933594.3037109s-.1884766.5068359-.0761719.7529297l3.9072266 8.5644531-4.2441406 9.2480469c-.2652112.5749742.2660025 1.2071649.8818358 1.0351563zm4.8691406-9.9697265c.0908203-.1972656.0908203-.4257813.0009766-.6240234l-3.4980469-7.6660156 7.5820313.8837891c.2626953.0244141.5087891-.0732422.6689453-.2724609l5.3320313-6.5732422.9208984 8.4140625c.0273438.2548828.1835938.4775391.4140625.5908203l6.8515625 3.3662109-7.0947266 4.5478516c-.1826172.1181641-.3066406.3095703-.3369141.5253906l-1.2636719 8.8144531-5.1181641-5.7412109c-.1954384-.2192078-.4929485-.2981834-.7597656-.2236328l-7.4140625 2.0517578z"/><path d="m57.823307 18.1453285c-2.5140381-3.8151236-5.9719849-6.9681997-10.2476196-9.0317984-7.8085861-5.5477948-17.8936062-5.0175681-26.3687744.2678834-.9178047-1.0427065-.7701225-1.1249762-1.5751343-3.8083501-.3930664.6789551-.8625488 2.6705937-1.2080688 3.221436-.776001 1.2372437-1.9992676 2.2438965-3.4125977 2.5941772-.135498.0335693-.1516724.2055664-.0239258.2618408.6640625.2924805 1.2644043.6465454 1.8074341 1.0526123-16.896228 15.1350795-15.4784227 43.7139388 3.4779663 50.3959342 4.6456299 3.4124794 12.9694824 3.1760292 17.8424683 2.4641151 6.2258911-.9095459 12.2543945-3.7428627 16.4972534-8.3890419 9.9841805-10.9333114 10.9921379-28.1468162 3.2109985-39.0288086zm-50.5474248 24.3111572 4.2171025-.2928467c.2056675 1.9131012.4539509 2.7093277.604187 3.3214111-.3239079.0082436-.1326761.0150566-3.9033203 1.8894043zm33.4042974-28.4873037c4.6676254 2.2159777 8.7204132 7.9275026 8.8856201 16.4768066-.0007935.0250854-.0114136.0474243-.0096436.072998.0009155.0134277.008606.0239258.0101929.0371094.2669411 17.7403069-17.1532898 30.4025993-28.2572632 25.1298828-4.09375-1.9433594-6.9443359-6.0869141-8.0244141-11.6660156-3.6723041-18.9571199 14.6318093-36.1105866 27.3955079-30.0507812zm-28.2382813 6.5546866c.9980469 1.0351563 2.1142578 1.9472656 3.3300781 2.7177734.067749.0430298.1415405.0634155.2150879.0825195-1.298418 2.0396881-1.8619032 3.3810101-2.2902222 4.3916016-1.3898315-.7926636-2.7052612-1.71875-3.9151001-2.7700195.7890626-1.5283204 1.6806642-3.0107422 2.6601563-4.421875zm30.6542969-12.215209c.5560913.2769165 1.0951538.5849609 1.6191406.9124756l-3.0802002 3.5541382c-.8980522-.4550562-1.7913361-.8119421-2.9342651-1.0911865.3195801-1.2828979 1.1890259-2.9335327 1.9314575-4.2276006.6066475.1045322 1.8671151.5936712 2.4638672.8521733zm15.1123047 38.8499746c-5.2202148 11.2732544-16.0977783 17.804081-26.8582153 16.8338623 21.2945747-3.5483322 33.4581413-31.9905663 21.663147-49.2978516 8.1019897 7.7468872 10.5565185 20.8966065 5.1950683 32.4639893zm-7.1413574-15.9902344 4.5476074-.3056641c.1123047 1.8134766.0888672 3.9628906-.5761719 5.9394531-1.4533348-.2170563-2.6530228-.4791489-4.434021-.7432251.2992554-1.618164.4492188-3.257141.4625855-4.8905639zm-.7852173 6.3580933c1.8622246.2722359 3.0202141.542572 4.8479004.7991943-1.3780708 5.5449715-4.1959801 10.9783325-8.333313 15.3925171-.1947594-.4568367-.2698059-.4676056-2.9506836-3.946228 3.3913879-3.823925 5.3863716-7.8791542 6.4360962-12.2454834zm-7.4702759 13.3590088 2.4134521 3.1178589c.0527344.0693359.1953125.2529297.2167969.2666016-.0525703.1090355-2.0522423 2.1584663-4.6044922 3.7617188l-1.6343994-4.0448608c1.2633667-.9096071 2.4732056-1.9482424 3.6086426-3.1013185zm13.2626343-21.557251-5.0154419.3377075c-.2968407-6.3551121-2.8950348-12.7365303-8.0968018-16.1321411l3.1290283-3.6098022c6.4373627 4.2239589 9.6817704 11.6472759 9.9832154 19.4042358zm-35.0103149 27.8739014c1.3306885.5800171 2.7322388.9505005 4.1817627 1.0967407-.9512939 1.1416626-1.7568359 2.4206543-2.3546143 3.7767334-1.0703125-.2216797-2.3134766-.7216797-3.8339844-1.5410156zm6.0780029 1.1608886c3.5890503-.0726318 7.3397217-1.3258667 10.7893066-3.5195313l1.8218994 4.5075684c-4.8809814 2.8207397-10.2870483 4.0195313-15.4246216 3.2244873 1.2130891-2.6892662 2.6121369-3.8440437 2.8134156-4.2125244zm-9.2368164-44.6414175c.6289063.7108154 1.1194458 1.5419312 1.4289551 2.5206289.0333862.1055908.1679688.0975952.1858521-.0117188.4121037-2.5193567 2.6888847-4.6008854 4.7174072-4.9486074-.6661987-.1766357-1.2909546-.484375-1.8609009-.8718872 5.0237103-3.029098 10.9288368-4.5064721 16.7525635-3.3421025-.7895508 1.401917-1.5843506 2.992188-1.9039307 4.3444219-7.1022339-.9593506-15.1954956 3.2782593-20.4556885 10.7484121-.2163944-.2890205-1.7696152-1.0199375-3.6590576-3.1326294 1.4393921-1.9865112 3.0541382-3.7602529 4.7947998-5.3065176zm-8.8389893 12.5734244c1.2634888 1.0687866 2.6240845 2.0220337 4.0675049 2.8287354-1.3448486 3.7046509-1.9395752 7.694519-1.7404175 11.543457-4.7210393.3335876-4.4763403.2809296-4.8301396.4088135-.33844-4.8756104.5137329-9.9487916 2.5030522-14.7810059zm-.7945556 22.7214355c.1004057-.0509186 4.482481-2.2735748 4.2037964-2.1322632 1.3612671 4.3565063 3.8721313 7.6887207 7.25177 9.6303101l-2.2120361 3.6742554c-4.1957398-2.404419-7.3909913-6.2757569-9.2435303-11.1723023z"/></g></svg>