<svg xmlns="http://www.w3.org/2000/svg" xmlns:xlink="http://www.w3.org/1999/xlink" width="30.337" height="30.612" viewBox="0 0 30.337 30.612">
  <defs>
    <clipPath id="clip-path">
      <rect id="Rectangle_18497" data-name="Rectangle 18497" width="23.658" height="23.161" fill="#199e46"/>
    </clipPath>
  </defs>
  <g id="Groupe_20260" data-name="Groupe 20260" transform="translate(21.475) rotate(68)">
    <g id="Groupe_17845" data-name="Groupe 17845" clip-path="url(#clip-path)">
      <path id="Tracé_392" data-name="Tracé 392" d="M17.2,3.517l-1.865,3.31c.264.267.54.511.775.79a4.79,4.79,0,0,1,1.089,2.466,2.4,2.4,0,0,0,.112.485.289.289,0,0,0,.183.165c.78.118,1.562.218,2.342.337.151.023.195-.046.259-.149a2.219,2.219,0,0,1,2.122-.984,1.753,1.753,0,0,1,1.38,2.151,1.911,1.911,0,0,1-1.563,1.463,1.819,1.819,0,0,1-1.9-.853,5.4,5.4,0,0,1-.4-1.083l-2.32-.325a4.925,4.925,0,0,1-.757,2.786A5.3,5.3,0,0,1,14.511,16l.56.936a5.485,5.485,0,0,1,.867-.06,1.7,1.7,0,0,1,1.5,2.195,1.9,1.9,0,0,1-3.163.982,1.69,1.69,0,0,1,.135-2.669c.062-.047.124-.092.2-.144-.181-.3-.362-.591-.528-.888-.091-.164-.2-.088-.312-.053a5.608,5.608,0,0,1-3.812-.1c-.316-.124-.613-.293-.947-.456l-3.227,4.1a6.962,6.962,0,0,1,.451,1.074,1.658,1.658,0,0,1-.054.822,2.072,2.072,0,0,1-3.1,1.042A1.674,1.674,0,0,1,2.326,21.2a1.764,1.764,0,0,1,1.153-1.477,2.171,2.171,0,0,1,1.682-.162c.055.021.182-.066.236-.135Q6.8,17.659,8.2,15.878c.124-.158.247-.316.361-.462C6.525,13.381,5.982,11.1,7.313,8.456L3.493,6.515c-.186.168-.336.315-.5.449a1.381,1.381,0,0,1-1.548.22,2.63,2.63,0,0,1-1.4-1.531.922.922,0,0,1-.013-.558A2.049,2.049,0,0,1,3.073,4.067a1.662,1.662,0,0,1,.658,1.718c-.025.136-.027.221.119.295,1.252.629,2.5,1.266,3.75,1.9a.151.151,0,0,0,.05.007,5.67,5.67,0,0,1,7.222-1.474l1.84-3.265c-.842-.97-.931-1.752-.293-2.5a2.03,2.03,0,0,1,2.521-.5,1.746,1.746,0,0,1,.679,2.206A1.905,1.905,0,0,1,17.2,3.517m-4.954,11.7a4.445,4.445,0,1,0-4.436-4.454,4.45,4.45,0,0,0,4.436,4.454M19.22,1.751a1.2,1.2,0,1,0-2.4-.019,1.22,1.22,0,0,0,1.206,1.206A1.2,1.2,0,0,0,19.22,1.751M5.717,21.209a1.194,1.194,0,1,0-2.388,0,1.194,1.194,0,1,0,2.388,0M20.7,11.666a1.177,1.177,0,0,0,1.177,1.19,1.189,1.189,0,0,0,1.215-1.182,1.23,1.23,0,0,0-1.245-1.2A1.159,1.159,0,0,0,20.7,11.666M3.216,5.442A1.281,1.281,0,0,0,1.968,4.263,1.207,1.207,0,0,0,.819,5.491a1.221,1.221,0,0,0,1.21,1.173A1.216,1.216,0,0,0,3.216,5.442M15.759,19.8a1.157,1.157,0,0,0,1.181-1.1,1.47,1.47,0,0,0-1.216-1.288,1.2,1.2,0,0,0-1.166,1.211,1.19,1.19,0,0,0,1.2,1.172" transform="translate(0 0)" fill="#199e46"/>
      <path id="Tracé_393" data-name="Tracé 393" d="M60.637,60.041a3.958,3.958,0,0,1,.589-2.292c.113-.174.251-.293.451-.156s.117.3.016.459a3.055,3.055,0,0,0-.134,3.168c.092.182.153.361-.066.472s-.335-.04-.43-.219a3.444,3.444,0,0,1-.427-1.432" transform="translate(-51.619 -48.977)" fill="#199e46"/>
      <path id="Tracé_394" data-name="Tracé 394" d="M67.788,88.785c.183-.133.283-.261.4-.277.186-.025.283.121.274.3s-.113.3-.285.263c-.116-.026-.21-.151-.387-.289" transform="translate(-57.706 -75.343)" fill="#199e46"/>
    </g>
  </g>
</svg>
